  0
SECTION
  2
HEADER
  9
$ACADVER
  1
AC1009
  9
$FILLMODE
 70
 0
  9
$SPLFRAME
 70
 1
  9
$EXTMIN
 10
0
 20
0
 30
0.0
  9
$EXTMAX
 10
1058.33
 20
1058.33
 30
0.0
  0
ENDSEC
  0
SECTION
  2
TABLES
  0
TABLE
  2
LAYER
 70
1
  0
LAYER
  2
0
 70
     0
 62
     7
  6
CONTINUOUS
  0
ENDTAB
  0
ENDSEC
  0
SECTION
  2
ENTITIES
  0
LINE
  8
0
 62
     0
 10
330.547
 20
132.549
 30
0.0
 11
330.704
 21
132.542
 31
0.0
  0
LINE
  8
0
 62
     0
 10
330.704
 20
132.542
 30
0.0
 11
330.86
 21
132.525
 31
0.0
  0
LINE
  8
0
 62
     0
 10
330.86
 20
132.525
 30
0.0
 11
331.015
 21
132.494
 31
0.0
  0
LINE
  8
0
 62
     0
 10
331.015
 20
132.494
 30
0.0
 11
331.166
 21
132.451
 31
0.0
  0
LINE
  8
0
 62
     0
 10
331.166
 20
132.451
 30
0.0
 11
331.312
 21
132.396
 31
0.0
  0
LINE
  8
0
 62
     0
 10
331.312
 20
132.396
 30
0.0
 11
331.456
 21
132.332
 31
0.0
  0
LINE
  8
0
 62
     0
 10
331.456
 20
132.332
 30
0.0
 11
331.592
 21
132.255
 31
0.0
  0
LINE
  8
0
 62
     0
 10
331.592
 20
132.255
 30
0.0
 11
331.724
 21
132.167
 31
0.0
  0
LINE
  8
0
 62
     0
 10
331.724
 20
132.167
 30
0.0
 11
331.847
 21
132.07
 31
0.0
  0
LINE
  8
0
 62
     0
 10
331.847
 20
132.07
 30
0.0
 11
331.961
 21
131.964
 31
0.0
  0
LINE
  8
0
 62
     0
 10
331.961
 20
131.964
 30
0.0
 11
332.069
 21
131.848
 31
0.0
  0
LINE
  8
0
 62
     0
 10
332.069
 20
131.848
 30
0.0
 11
332.165
 21
131.725
 31
0.0
  0
LINE
  8
0
 62
     0
 10
332.165
 20
131.725
 30
0.0
 11
332.252
 21
131.594
 31
0.0
  0
LINE
  8
0
 62
     0
 10
332.252
 20
131.594
 30
0.0
 11
332.329
 21
131.457
 31
0.0
  0
LINE
  8
0
 62
     0
 10
332.329
 20
131.457
 30
0.0
 11
332.395
 21
131.314
 31
0.0
  0
LINE
  8
0
 62
     0
 10
332.395
 20
131.314
 30
0.0
 11
332.449
 21
131.168
 31
0.0
  0
LINE
  8
0
 62
     0
 10
332.449
 20
131.168
 30
0.0
 11
332.493
 21
131.016
 31
0.0
  0
LINE
  8
0
 62
     0
 10
332.493
 20
131.016
 30
0.0
 11
332.522
 21
130.863
 31
0.0
  0
LINE
  8
0
 62
     0
 10
332.522
 20
130.863
 30
0.0
 11
332.541
 21
130.706
 31
0.0
  0
LINE
  8
0
 62
     0
 10
332.541
 20
130.706
 30
0.0
 11
332.548
 21
130.549
 31
0.0
  0
LINE
  8
0
 62
     0
 10
332.548
 20
130.549
 30
0.0
 11
332.548
 21
2.39641
 31
0.0
  0
LINE
  8
0
 62
     0
 10
332.548
 20
2.39641
 30
0.0
 11
332.541
 21
2.23931
 31
0.0
  0
LINE
  8
0
 62
     0
 10
332.541
 20
2.23931
 30
0.0
 11
332.522
 21
2.08359
 31
0.0
  0
LINE
  8
0
 62
     0
 10
332.522
 20
2.08359
 30
0.0
 11
332.493
 21
1.92925
 31
0.0
  0
LINE
  8
0
 62
     0
 10
332.493
 20
1.92925
 30
0.0
 11
332.449
 21
1.77767
 31
0.0
  0
LINE
  8
0
 62
     0
 10
332.449
 20
1.77767
 30
0.0
 11
332.395
 21
1.63022
 31
0.0
  0
LINE
  8
0
 62
     0
 10
332.395
 20
1.63022
 30
0.0
 11
332.329
 21
1.48828
 31
0.0
  0
LINE
  8
0
 62
     0
 10
332.329
 20
1.48828
 30
0.0
 11
332.252
 21
1.35048
 31
0.0
  0
LINE
  8
0
 62
     0
 10
332.252
 20
1.35048
 30
0.0
 11
332.165
 21
1.21956
 31
0.0
  0
LINE
  8
0
 62
     0
 10
332.165
 20
1.21956
 30
0.0
 11
332.069
 21
1.09692
 31
0.0
  0
LINE
  8
0
 62
     0
 10
332.069
 20
1.09692
 30
0.0
 11
331.961
 21
0.982543
 31
0.0
  0
LINE
  8
0
 62
     0
 10
331.961
 20
0.982543
 30
0.0
 11
331.847
 21
0.875055
 31
0.0
  0
LINE
  8
0
 62
     0
 10
331.847
 20
0.875055
 30
0.0
 11
331.724
 21
0.778591
 31
0.0
  0
LINE
  8
0
 62
     0
 10
331.724
 20
0.778591
 30
0.0
 11
331.592
 21
0.690397
 31
0.0
  0
LINE
  8
0
 62
     0
 10
331.592
 20
0.690397
 30
0.0
 11
331.456
 21
0.614606
 31
0.0
  0
LINE
  8
0
 62
     0
 10
331.456
 20
0.614606
 30
0.0
 11
331.312
 21
0.54846
 31
0.0
  0
LINE
  8
0
 62
     0
 10
331.312
 20
0.54846
 30
0.0
 11
331.166
 21
0.493339
 31
0.0
  0
LINE
  8
0
 62
     0
 10
331.166
 20
0.493339
 30
0.0
 11
331.015
 21
0.450617
 31
0.0
  0
LINE
  8
0
 62
     0
 10
331.015
 20
0.450617
 30
0.0
 11
330.86
 21
0.420303
 31
0.0
  0
LINE
  8
0
 62
     0
 10
330.86
 20
0.420303
 30
0.0
 11
330.704
 21
0.402389
 31
0.0
  0
LINE
  8
0
 62
     0
 10
330.704
 20
0.402389
 30
0.0
 11
330.547
 21
0.395496
 31
0.0
  0
LINE
  8
0
 62
     0
 10
330.547
 20
0.395496
 30
0.0
 11
2.096
 21
0.395496
 31
0.0
  0
LINE
  8
0
 62
     0
 10
2.096
 20
0.395496
 30
0.0
 11
1.9389
 21
0.402389
 31
0.0
  0
LINE
  8
0
 62
     0
 10
1.9389
 20
0.402389
 30
0.0
 11
1.7818
 21
0.420303
 31
0.0
  0
LINE
  8
0
 62
     0
 10
1.7818
 20
0.420303
 30
0.0
 11
1.62884
 21
0.450617
 31
0.0
  0
LINE
  8
0
 62
     0
 10
1.62884
 20
0.450617
 30
0.0
 11
1.47588
 21
0.493339
 31
0.0
  0
LINE
  8
0
 62
     0
 10
1.47588
 20
0.493339
 30
0.0
 11
1.32981
 21
0.54846
 31
0.0
  0
LINE
  8
0
 62
     0
 10
1.32981
 20
0.54846
 30
0.0
 11
1.18787
 21
0.614606
 31
0.0
  0
LINE
  8
0
 62
     0
 10
1.18787
 20
0.614606
 30
0.0
 11
1.05006
 21
0.690397
 31
0.0
  0
LINE
  8
0
 62
     0
 10
1.05006
 20
0.690397
 30
0.0
 11
0.919152
 21
0.778591
 31
0.0
  0
LINE
  8
0
 62
     0
 10
0.919152
 20
0.778591
 30
0.0
 11
0.796505
 21
0.875055
 31
0.0
  0
LINE
  8
0
 62
     0
 10
0.796505
 20
0.875055
 30
0.0
 11
0.680752
 21
0.982543
 31
0.0
  0
LINE
  8
0
 62
     0
 10
0.680752
 20
0.982543
 30
0.0
 11
0.574643
 21
1.09692
 31
0.0
  0
LINE
  8
0
 62
     0
 10
0.574643
 20
1.09692
 30
0.0
 11
0.4768
 21
1.21956
 31
0.0
  0
LINE
  8
0
 62
     0
 10
0.4768
 20
1.21956
 30
0.0
 11
0.389985
 21
1.35048
 31
0.0
  0
LINE
  8
0
 62
     0
 10
0.389985
 20
1.35048
 30
0.0
 11
0.312815
 21
1.48828
 31
0.0
  0
LINE
  8
0
 62
     0
 10
0.312815
 20
1.48828
 30
0.0
 11
0.248047
 21
1.63022
 31
0.0
  0
LINE
  8
0
 62
     0
 10
0.248047
 20
1.63022
 30
0.0
 11
0.192925
 21
1.77767
 31
0.0
  0
LINE
  8
0
 62
     0
 10
0.192925
 20
1.77767
 30
0.0
 11
0.150206
 21
1.92925
 31
0.0
  0
LINE
  8
0
 62
     0
 10
0.150206
 20
1.92925
 30
0.0
 11
0.119889
 21
2.08359
 31
0.0
  0
LINE
  8
0
 62
     0
 10
0.119889
 20
2.08359
 30
0.0
 11
0.101975
 21
2.23931
 31
0.0
  0
LINE
  8
0
 62
     0
 10
0.101975
 20
2.23931
 30
0.0
 11
0.0950846
 21
2.39641
 31
0.0
  0
LINE
  8
0
 62
     0
 10
0.0950846
 20
2.39641
 30
0.0
 11
0.0950846
 21
130.549
 31
0.0
  0
LINE
  8
0
 62
     0
 10
0.0950846
 20
130.549
 30
0.0
 11
0.101975
 21
130.706
 31
0.0
  0
LINE
  8
0
 62
     0
 10
0.101975
 20
130.706
 30
0.0
 11
0.119889
 21
130.863
 31
0.0
  0
LINE
  8
0
 62
     0
 10
0.119889
 20
130.863
 30
0.0
 11
0.150206
 21
131.016
 31
0.0
  0
LINE
  8
0
 62
     0
 10
0.150206
 20
131.016
 30
0.0
 11
0.192925
 21
131.168
 31
0.0
  0
LINE
  8
0
 62
     0
 10
0.192925
 20
131.168
 30
0.0
 11
0.248047
 21
131.314
 31
0.0
  0
LINE
  8
0
 62
     0
 10
0.248047
 20
131.314
 30
0.0
 11
0.312815
 21
131.457
 31
0.0
  0
LINE
  8
0
 62
     0
 10
0.312815
 20
131.457
 30
0.0
 11
0.389985
 21
131.594
 31
0.0
  0
LINE
  8
0
 62
     0
 10
0.389985
 20
131.594
 30
0.0
 11
0.4768
 21
131.725
 31
0.0
  0
LINE
  8
0
 62
     0
 10
0.4768
 20
131.725
 30
0.0
 11
0.574643
 21
131.848
 31
0.0
  0
LINE
  8
0
 62
     0
 10
0.574643
 20
131.848
 30
0.0
 11
0.680752
 21
131.964
 31
0.0
  0
LINE
  8
0
 62
     0
 10
0.680752
 20
131.964
 30
0.0
 11
0.796505
 21
132.07
 31
0.0
  0
LINE
  8
0
 62
     0
 10
0.796505
 20
132.07
 30
0.0
 11
0.919152
 21
132.167
 31
0.0
  0
LINE
  8
0
 62
     0
 10
0.919152
 20
132.167
 30
0.0
 11
1.05006
 21
132.255
 31
0.0
  0
LINE
  8
0
 62
     0
 10
1.05006
 20
132.255
 30
0.0
 11
1.18787
 21
132.332
 31
0.0
  0
LINE
  8
0
 62
     0
 10
1.18787
 20
132.332
 30
0.0
 11
1.32981
 21
132.396
 31
0.0
  0
LINE
  8
0
 62
     0
 10
1.32981
 20
132.396
 30
0.0
 11
1.47588
 21
132.451
 31
0.0
  0
LINE
  8
0
 62
     0
 10
1.47588
 20
132.451
 30
0.0
 11
1.62884
 21
132.494
 31
0.0
  0
LINE
  8
0
 62
     0
 10
1.62884
 20
132.494
 30
0.0
 11
1.7818
 21
132.525
 31
0.0
  0
LINE
  8
0
 62
     0
 10
1.7818
 20
132.525
 30
0.0
 11
1.9389
 21
132.542
 31
0.0
  0
LINE
  8
0
 62
     0
 10
1.9389
 20
132.542
 30
0.0
 11
2.096
 21
132.549
 31
0.0
  0
LINE
  8
0
 62
     0
 10
2.096
 20
132.549
 30
0.0
 11
330.547
 21
132.549
 31
0.0
  0
LINE
  8
0
 62
     0
 10
175.058
 20
19.0789
 30
0.0
 11
176.277
 21
5.13182
 31
0.0
  0
LINE
  8
0
 62
     0
 10
176.277
 20
5.13182
 30
0.0
 11
190.223
 21
6.35275
 31
0.0
  0
LINE
  8
0
 62
     0
 10
190.223
 20
6.35275
 30
0.0
 11
189.004
 21
20.2985
 31
0.0
  0
LINE
  8
0
 62
     0
 10
189.004
 20
20.2985
 30
0.0
 11
175.058
 21
19.0789
 31
0.0
  0
LINE
  8
0
 62
     0
 10
137.834
 20
6.76755
 30
0.0
 11
151.78
 21
5.54662
 31
0.0
  0
LINE
  8
0
 62
     0
 10
151.78
 20
5.54662
 30
0.0
 11
153.001
 21
19.4937
 31
0.0
  0
LINE
  8
0
 62
     0
 10
153.001
 20
19.4937
 30
0.0
 11
139.055
 21
20.7133
 31
0.0
  0
LINE
  8
0
 62
     0
 10
139.055
 20
20.7133
 30
0.0
 11
137.834
 21
6.76755
 31
0.0
  0
LINE
  8
0
 62
     0
 10
205.896
 20
21.7771
 30
0.0
 11
206.306
 21
17.0946
 31
0.0
  0
LINE
  8
0
 62
     0
 10
206.306
 20
17.0946
 30
0.0
 11
204.786
 21
16.9623
 31
0.0
  0
LINE
  8
0
 62
     0
 10
204.786
 20
16.9623
 30
0.0
 11
204.505
 21
20.18
 31
0.0
  0
LINE
  8
0
 62
     0
 10
204.505
 20
20.18
 30
0.0
 11
197.78
 21
19.5916
 31
0.0
  0
LINE
  8
0
 62
     0
 10
197.78
 20
19.5916
 30
0.0
 11
198.061
 21
16.3739
 31
0.0
  0
LINE
  8
0
 62
     0
 10
198.061
 20
16.3739
 30
0.0
 11
197.24
 21
16.3022
 31
0.0
  0
LINE
  8
0
 62
     0
 10
197.24
 20
16.3022
 30
0.0
 11
197.484
 21
13.513
 31
0.0
  0
LINE
  8
0
 62
     0
 10
197.484
 20
13.513
 30
0.0
 11
198.305
 21
13.5833
 31
0.0
  0
LINE
  8
0
 62
     0
 10
198.305
 20
13.5833
 30
0.0
 11
198.852
 21
7.33806
 31
0.0
  0
LINE
  8
0
 62
     0
 10
198.852
 20
7.33806
 30
0.0
 11
200.571
 21
7.48965
 31
0.0
  0
LINE
  8
0
 62
     0
 10
200.571
 20
7.48965
 30
0.0
 11
200.676
 21
6.29348
 31
0.0
  0
LINE
  8
0
 62
     0
 10
200.676
 20
6.29348
 30
0.0
 11
203.962
 21
6.58153
 31
0.0
  0
LINE
  8
0
 62
     0
 10
203.962
 20
6.58153
 30
0.0
 11
203.857
 21
7.77628
 31
0.0
  0
LINE
  8
0
 62
     0
 10
203.857
 20
7.77628
 30
0.0
 11
205.577
 21
7.92649
 31
0.0
  0
LINE
  8
0
 62
     0
 10
205.577
 20
7.92649
 30
0.0
 11
205.187
 21
12.3803
 31
0.0
  0
LINE
  8
0
 62
     0
 10
205.187
 20
12.3803
 30
0.0
 11
206.706
 21
12.5126
 31
0.0
  0
LINE
  8
0
 62
     0
 10
206.706
 20
12.5126
 30
0.0
 11
207.115
 21
7.83001
 31
0.0
  0
LINE
  8
0
 62
     0
 10
207.115
 20
7.83001
 30
0.0
 11
221.062
 21
9.05235
 31
0.0
  0
LINE
  8
0
 62
     0
 10
221.062
 20
9.05235
 30
0.0
 11
220.653
 21
13.7335
 31
0.0
  0
LINE
  8
0
 62
     0
 10
220.653
 20
13.7335
 30
0.0
 11
222.171
 21
13.8658
 31
0.0
  0
LINE
  8
0
 62
     0
 10
222.171
 20
13.8658
 30
0.0
 11
222.562
 21
9.41338
 31
0.0
  0
LINE
  8
0
 62
     0
 10
222.562
 20
9.41338
 30
0.0
 11
224.28
 21
9.56359
 31
0.0
  0
LINE
  8
0
 62
     0
 10
224.28
 20
9.56359
 30
0.0
 11
224.385
 21
8.36747
 31
0.0
  0
LINE
  8
0
 62
     0
 10
224.385
 20
8.36747
 30
0.0
 11
227.673
 21
8.65547
 31
0.0
  0
LINE
  8
0
 62
     0
 10
227.673
 20
8.65547
 30
0.0
 11
227.568
 21
9.8516
 31
0.0
  0
LINE
  8
0
 62
     0
 10
227.568
 20
9.8516
 30
0.0
 11
229.285
 21
10.0004
 31
0.0
  0
LINE
  8
0
 62
     0
 10
229.285
 20
10.0004
 30
0.0
 11
228.739
 21
16.2471
 31
0.0
  0
LINE
  8
0
 62
     0
 10
228.739
 20
16.2471
 30
0.0
 11
229.562
 21
16.3187
 31
0.0
  0
LINE
  8
0
 62
     0
 10
229.562
 20
16.3187
 30
0.0
 11
229.318
 21
19.1079
 31
0.0
  0
LINE
  8
0
 62
     0
 10
229.318
 20
19.1079
 30
0.0
 11
228.495
 21
19.0362
 31
0.0
  0
LINE
  8
0
 62
     0
 10
228.495
 20
19.0362
 30
0.0
 11
228.214
 21
22.2539
 31
0.0
  0
LINE
  8
0
 62
     0
 10
228.214
 20
22.2539
 30
0.0
 11
221.489
 21
21.6655
 31
0.0
  0
LINE
  8
0
 62
     0
 10
221.489
 20
21.6655
 30
0.0
 11
221.772
 21
18.4478
 31
0.0
  0
LINE
  8
0
 62
     0
 10
221.772
 20
18.4478
 30
0.0
 11
220.252
 21
18.3155
 31
0.0
  0
LINE
  8
0
 62
     0
 10
220.252
 20
18.3155
 30
0.0
 11
219.843
 21
22.9967
 31
0.0
  0
LINE
  8
0
 62
     0
 10
219.843
 20
22.9967
 30
0.0
 11
205.896
 21
21.7771
 31
0.0
  0
LINE
  8
0
 62
     0
 10
101.67
 20
23.7546
 30
0.0
 11
99.9518
 21
23.9034
 31
0.0
  0
LINE
  8
0
 62
     0
 10
99.9518
 20
23.9034
 30
0.0
 11
99.4061
 21
17.6582
 31
0.0
  0
LINE
  8
0
 62
     0
 10
99.4061
 20
17.6582
 30
0.0
 11
98.5848
 21
17.7298
 31
0.0
  0
LINE
  8
0
 62
     0
 10
98.5848
 20
17.7298
 30
0.0
 11
98.3396
 21
14.9407
 31
0.0
  0
LINE
  8
0
 62
     0
 10
98.3396
 20
14.9407
 30
0.0
 11
99.1609
 21
14.869
 31
0.0
  0
LINE
  8
0
 62
     0
 10
99.1609
 20
14.869
 30
0.0
 11
98.8811
 21
11.6513
 31
0.0
  0
LINE
  8
0
 62
     0
 10
98.8811
 20
11.6513
 30
0.0
 11
105.605
 21
11.0629
 31
0.0
  0
LINE
  8
0
 62
     0
 10
105.605
 20
11.0629
 30
0.0
 11
105.887
 21
14.2806
 31
0.0
  0
LINE
  8
0
 62
     0
 10
105.887
 20
14.2806
 30
0.0
 11
107.406
 21
14.1483
 31
0.0
  0
LINE
  8
0
 62
     0
 10
107.406
 20
14.1483
 30
0.0
 11
106.995
 21
9.46573
 31
0.0
  0
LINE
  8
0
 62
     0
 10
106.995
 20
9.46573
 30
0.0
 11
120.942
 21
8.24618
 31
0.0
  0
LINE
  8
0
 62
     0
 10
120.942
 20
8.24618
 30
0.0
 11
121.353
 21
12.9274
 31
0.0
  0
LINE
  8
0
 62
     0
 10
121.353
 20
12.9274
 30
0.0
 11
122.871
 21
12.7951
 31
0.0
  0
LINE
  8
0
 62
     0
 10
122.871
 20
12.7951
 30
0.0
 11
122.589
 21
9.57735
 31
0.0
  0
LINE
  8
0
 62
     0
 10
122.589
 20
9.57735
 30
0.0
 11
129.315
 21
8.98895
 31
0.0
  0
LINE
  8
0
 62
     0
 10
129.315
 20
8.98895
 30
0.0
 11
129.595
 21
12.2053
 31
0.0
  0
LINE
  8
0
 62
     0
 10
129.595
 20
12.2053
 30
0.0
 11
130.418
 21
12.1336
 31
0.0
  0
LINE
  8
0
 62
     0
 10
130.418
 20
12.1336
 30
0.0
 11
130.661
 21
14.9242
 31
0.0
  0
LINE
  8
0
 62
     0
 10
130.661
 20
14.9242
 30
0.0
 11
129.84
 21
14.9958
 31
0.0
  0
LINE
  8
0
 62
     0
 10
129.84
 20
14.9958
 30
0.0
 11
130.386
 21
21.2424
 31
0.0
  0
LINE
  8
0
 62
     0
 10
130.386
 20
21.2424
 30
0.0
 11
128.668
 21
21.3913
 31
0.0
  0
LINE
  8
0
 62
     0
 10
128.668
 20
21.3913
 30
0.0
 11
128.772
 21
22.5874
 31
0.0
  0
LINE
  8
0
 62
     0
 10
128.772
 20
22.5874
 30
0.0
 11
125.484
 21
22.8755
 31
0.0
  0
LINE
  8
0
 62
     0
 10
125.484
 20
22.8755
 30
0.0
 11
125.381
 21
21.6793
 31
0.0
  0
LINE
  8
0
 62
     0
 10
125.381
 20
21.6793
 30
0.0
 11
123.661
 21
21.8295
 31
0.0
  0
LINE
  8
0
 62
     0
 10
123.661
 20
21.8295
 30
0.0
 11
123.271
 21
17.3771
 31
0.0
  0
LINE
  8
0
 62
     0
 10
123.271
 20
17.3771
 30
0.0
 11
121.752
 21
17.5093
 31
0.0
  0
LINE
  8
0
 62
     0
 10
121.752
 20
17.5093
 30
0.0
 11
122.163
 21
22.1919
 31
0.0
  0
LINE
  8
0
 62
     0
 10
122.163
 20
22.1919
 30
0.0
 11
108.216
 21
23.4115
 31
0.0
  0
LINE
  8
0
 62
     0
 10
108.216
 20
23.4115
 30
0.0
 11
107.805
 21
18.7303
 31
0.0
  0
LINE
  8
0
 62
     0
 10
107.805
 20
18.7303
 30
0.0
 11
106.288
 21
18.8626
 31
0.0
  0
LINE
  8
0
 62
     0
 10
106.288
 20
18.8626
 30
0.0
 11
106.677
 21
23.3164
 31
0.0
  0
LINE
  8
0
 62
     0
 10
106.677
 20
23.3164
 30
0.0
 11
104.958
 21
23.4666
 31
0.0
  0
LINE
  8
0
 62
     0
 10
104.958
 20
23.4666
 30
0.0
 11
105.063
 21
24.6614
 31
0.0
  0
LINE
  8
0
 62
     0
 10
105.063
 20
24.6614
 30
0.0
 11
101.775
 21
24.9494
 31
0.0
  0
LINE
  8
0
 62
     0
 10
101.775
 20
24.9494
 30
0.0
 11
101.67
 21
23.7546
 31
0.0
  0
LINE
  8
0
 62
     0
 10
236.733
 20
24.4753
 30
0.0
 11
237.954
 21
10.5282
 31
0.0
  0
LINE
  8
0
 62
     0
 10
237.954
 20
10.5282
 30
0.0
 11
251.9
 21
11.7492
 31
0.0
  0
LINE
  8
0
 62
     0
 10
251.9
 20
11.7492
 30
0.0
 11
250.68
 21
25.6949
 31
0.0
  0
LINE
  8
0
 62
     0
 10
250.68
 20
25.6949
 30
0.0
 11
236.733
 21
24.4753
 31
0.0
  0
LINE
  8
0
 62
     0
 10
73.7856
 20
12.3706
 30
0.0
 11
87.7316
 21
11.1511
 31
0.0
  0
LINE
  8
0
 62
     0
 10
87.7316
 20
11.1511
 30
0.0
 11
88.9512
 21
25.0982
 31
0.0
  0
LINE
  8
0
 62
     0
 10
88.9512
 20
25.0982
 30
0.0
 11
75.0051
 21
26.3178
 31
0.0
  0
LINE
  8
0
 62
     0
 10
75.0051
 20
26.3178
 30
0.0
 11
73.7856
 21
12.3706
 31
0.0
  0
LINE
  8
0
 62
     0
 10
255.712
 20
26.1345
 30
0.0
 11
256.931
 21
12.1888
 31
0.0
  0
LINE
  8
0
 62
     0
 10
256.931
 20
12.1888
 30
0.0
 11
270.878
 21
13.4083
 31
0.0
  0
LINE
  8
0
 62
     0
 10
270.878
 20
13.4083
 30
0.0
 11
269.659
 21
27.3554
 31
0.0
  0
LINE
  8
0
 62
     0
 10
269.659
 20
27.3554
 30
0.0
 11
255.712
 21
26.1345
 31
0.0
  0
LINE
  8
0
 62
     0
 10
50.0641
 20
14.4473
 30
0.0
 11
64.0098
 21
13.2264
 31
0.0
  0
LINE
  8
0
 62
     0
 10
64.0098
 20
13.2264
 30
0.0
 11
65.2307
 21
27.1735
 31
0.0
  0
LINE
  8
0
 62
     0
 10
65.2307
 20
27.1735
 30
0.0
 11
51.2837
 21
28.3931
 31
0.0
  0
LINE
  8
0
 62
     0
 10
51.2837
 20
28.3931
 30
0.0
 11
50.0641
 21
14.4473
 31
0.0
  0
LINE
  8
0
 62
     0
 10
274.689
 20
27.7964
 30
0.0
 11
275.909
 21
13.8493
 31
0.0
  0
LINE
  8
0
 62
     0
 10
275.909
 20
13.8493
 30
0.0
 11
289.855
 21
15.0688
 31
0.0
  0
LINE
  8
0
 62
     0
 10
289.855
 20
15.0688
 30
0.0
 11
288.636
 21
29.016
 31
0.0
  0
LINE
  8
0
 62
     0
 10
288.636
 20
29.016
 30
0.0
 11
274.689
 21
27.7964
 31
0.0
  0
LINE
  8
0
 62
     0
 10
26.3412
 20
16.5213
 30
0.0
 11
40.2883
 21
15.3017
 31
0.0
  0
LINE
  8
0
 62
     0
 10
40.2883
 20
15.3017
 30
0.0
 11
41.5078
 21
29.2489
 31
0.0
  0
LINE
  8
0
 62
     0
 10
41.5078
 20
29.2489
 30
0.0
 11
27.5621
 21
30.4684
 31
0.0
  0
LINE
  8
0
 62
     0
 10
27.5621
 20
30.4684
 30
0.0
 11
26.3412
 21
16.5213
 31
0.0
  0
LINE
  8
0
 62
     0
 10
293.667
 20
29.4556
 30
0.0
 11
294.886
 21
15.5084
 31
0.0
  0
LINE
  8
0
 62
     0
 10
294.886
 20
15.5084
 30
0.0
 11
308.834
 21
16.7294
 31
0.0
  0
LINE
  8
0
 62
     0
 10
308.834
 20
16.7294
 30
0.0
 11
307.614
 21
30.6765
 31
0.0
  0
LINE
  8
0
 62
     0
 10
307.614
 20
30.6765
 30
0.0
 11
293.667
 21
29.4556
 31
0.0
  0
LINE
  8
0
 62
     0
 10
312.644
 20
31.1161
 30
0.0
 11
313.865
 21
17.1704
 31
0.0
  0
LINE
  8
0
 62
     0
 10
313.865
 20
17.1704
 30
0.0
 11
327.811
 21
18.3899
 31
0.0
  0
LINE
  8
0
 62
     0
 10
327.811
 20
18.3899
 30
0.0
 11
326.591
 21
32.3371
 31
0.0
  0
LINE
  8
0
 62
     0
 10
326.591
 20
32.3371
 30
0.0
 11
312.644
 21
31.1161
 31
0.0
  0
LINE
  8
0
 62
     0
 10
144.238
 20
25.3297
 30
0.0
 11
158.185
 21
24.1102
 31
0.0
  0
LINE
  8
0
 62
     0
 10
158.185
 20
24.1102
 30
0.0
 11
159.406
 21
38.0573
 31
0.0
  0
LINE
  8
0
 62
     0
 10
159.406
 20
38.0573
 30
0.0
 11
145.459
 21
39.2769
 31
0.0
  0
LINE
  8
0
 62
     0
 10
145.459
 20
39.2769
 30
0.0
 11
144.238
 21
25.3297
 31
0.0
  0
LINE
  8
0
 62
     0
 10
182.885
 20
38.8867
 30
0.0
 11
184.106
 21
24.9397
 31
0.0
  0
LINE
  8
0
 62
     0
 10
184.106
 20
24.9397
 30
0.0
 11
198.053
 21
26.1593
 31
0.0
  0
LINE
  8
0
 62
     0
 10
198.053
 20
26.1593
 30
0.0
 11
196.832
 21
40.1066
 31
0.0
  0
LINE
  8
0
 62
     0
 10
196.832
 20
40.1066
 30
0.0
 11
182.885
 21
38.8867
 31
0.0
  0
LINE
  8
0
 62
     0
 10
125.261
 20
26.9903
 30
0.0
 11
139.208
 21
25.7693
 31
0.0
  0
LINE
  8
0
 62
     0
 10
139.208
 20
25.7693
 30
0.0
 11
140.429
 21
39.7164
 31
0.0
  0
LINE
  8
0
 62
     0
 10
140.429
 20
39.7164
 30
0.0
 11
126.482
 21
40.9374
 31
0.0
  0
LINE
  8
0
 62
     0
 10
126.482
 20
40.9374
 30
0.0
 11
125.261
 21
26.9903
 31
0.0
  0
LINE
  8
0
 62
     0
 10
201.862
 20
40.5476
 30
0.0
 11
203.083
 21
26.6003
 31
0.0
  0
LINE
  8
0
 62
     0
 10
203.083
 20
26.6003
 30
0.0
 11
217.03
 21
27.8212
 31
0.0
  0
LINE
  8
0
 62
     0
 10
217.03
 20
27.8212
 30
0.0
 11
215.809
 21
41.7671
 31
0.0
  0
LINE
  8
0
 62
     0
 10
215.809
 20
41.7671
 30
0.0
 11
201.862
 21
40.5476
 31
0.0
  0
LINE
  8
0
 62
     0
 10
5.82083
 20
27.8791
 30
0.0
 11
19.768
 21
26.6581
 31
0.0
  0
LINE
  8
0
 62
     0
 10
19.768
 20
26.6581
 30
0.0
 11
20.9889
 21
40.6054
 31
0.0
  0
LINE
  8
0
 62
     0
 10
20.9889
 20
40.6054
 30
0.0
 11
7.04176
 21
41.825
 31
0.0
  0
LINE
  8
0
 62
     0
 10
7.04176
 20
41.825
 30
0.0
 11
5.82083
 21
27.8791
 31
0.0
  0
LINE
  8
0
 62
     0
 10
106.284
 20
28.6508
 30
0.0
 11
120.231
 21
27.4312
 31
0.0
  0
LINE
  8
0
 62
     0
 10
120.231
 20
27.4312
 30
0.0
 11
121.451
 21
41.377
 31
0.0
  0
LINE
  8
0
 62
     0
 10
121.451
 20
41.377
 30
0.0
 11
107.505
 21
42.5965
 31
0.0
  0
LINE
  8
0
 62
     0
 10
107.505
 20
42.5965
 30
0.0
 11
106.284
 21
28.6508
 31
0.0
  0
LINE
  8
0
 62
     0
 10
220.84
 20
42.2067
 30
0.0
 11
222.06
 21
28.2608
 31
0.0
  0
LINE
  8
0
 62
     0
 10
222.06
 20
28.2608
 30
0.0
 11
236.007
 21
29.4804
 31
0.0
  0
LINE
  8
0
 62
     0
 10
236.007
 20
29.4804
 30
0.0
 11
234.787
 21
43.4276
 31
0.0
  0
LINE
  8
0
 62
     0
 10
234.787
 20
43.4276
 30
0.0
 11
220.84
 21
42.2067
 31
0.0
  0
LINE
  8
0
 62
     0
 10
87.3069
 20
30.3113
 30
0.0
 11
101.254
 21
29.0904
 31
0.0
  0
LINE
  8
0
 62
     0
 10
101.254
 20
29.0904
 30
0.0
 11
102.474
 21
43.0375
 31
0.0
  0
LINE
  8
0
 62
     0
 10
102.474
 20
43.0375
 30
0.0
 11
88.5264
 21
44.2584
 31
0.0
  0
LINE
  8
0
 62
     0
 10
88.5264
 20
44.2584
 30
0.0
 11
87.3069
 21
30.3113
 31
0.0
  0
LINE
  8
0
 62
     0
 10
239.819
 20
43.8686
 30
0.0
 11
241.038
 21
29.9213
 31
0.0
  0
LINE
  8
0
 62
     0
 10
241.038
 20
29.9213
 30
0.0
 11
254.984
 21
31.1409
 31
0.0
  0
LINE
  8
0
 62
     0
 10
254.984
 20
31.1409
 30
0.0
 11
253.763
 21
45.0882
 31
0.0
  0
LINE
  8
0
 62
     0
 10
253.763
 20
45.0882
 30
0.0
 11
239.819
 21
43.8686
 31
0.0
  0
LINE
  8
0
 62
     0
 10
68.3288
 20
31.9705
 30
0.0
 11
82.2759
 21
30.7509
 31
0.0
  0
LINE
  8
0
 62
     0
 10
82.2759
 20
30.7509
 30
0.0
 11
83.4954
 21
44.698
 31
0.0
  0
LINE
  8
0
 62
     0
 10
83.4954
 20
44.698
 30
0.0
 11
69.5494
 21
45.9176
 31
0.0
  0
LINE
  8
0
 62
     0
 10
69.5494
 20
45.9176
 30
0.0
 11
68.3288
 21
31.9705
 31
0.0
  0
LINE
  8
0
 62
     0
 10
258.796
 20
45.5277
 30
0.0
 11
260.015
 21
31.5805
 31
0.0
  0
LINE
  8
0
 62
     0
 10
260.015
 20
31.5805
 30
0.0
 11
273.962
 21
32.8015
 31
0.0
  0
LINE
  8
0
 62
     0
 10
273.962
 20
32.8015
 30
0.0
 11
272.743
 21
46.7487
 31
0.0
  0
LINE
  8
0
 62
     0
 10
272.743
 20
46.7487
 30
0.0
 11
258.796
 21
45.5277
 31
0.0
  0
LINE
  8
0
 62
     0
 10
32.1662
 20
48.9574
 30
0.0
 11
30.4478
 21
49.1077
 31
0.0
  0
LINE
  8
0
 62
     0
 10
30.4478
 20
49.1077
 30
0.0
 11
29.9007
 21
42.8625
 31
0.0
  0
LINE
  8
0
 62
     0
 10
29.9007
 20
42.8625
 30
0.0
 11
29.078
 21
42.9341
 31
0.0
  0
LINE
  8
0
 62
     0
 10
29.078
 20
42.9341
 30
0.0
 11
28.8341
 21
40.1451
 31
0.0
  0
LINE
  8
0
 62
     0
 10
28.8341
 20
40.1451
 30
0.0
 11
29.6568
 21
40.0734
 31
0.0
  0
LINE
  8
0
 62
     0
 10
29.6568
 20
40.0734
 30
0.0
 11
29.3743
 21
36.8558
 31
0.0
  0
LINE
  8
0
 62
     0
 10
29.3743
 20
36.8558
 30
0.0
 11
36.099
 21
36.2673
 31
0.0
  0
LINE
  8
0
 62
     0
 10
36.099
 20
36.2673
 30
0.0
 11
36.3802
 21
39.4836
 31
0.0
  0
LINE
  8
0
 62
     0
 10
36.3802
 20
39.4836
 30
0.0
 11
37.9003
 21
39.3513
 31
0.0
  0
LINE
  8
0
 62
     0
 10
37.9003
 20
39.3513
 30
0.0
 11
37.4908
 21
34.6687
 31
0.0
  0
LINE
  8
0
 62
     0
 10
37.4908
 20
34.6687
 30
0.0
 11
51.4382
 21
33.4491
 31
0.0
  0
LINE
  8
0
 62
     0
 10
51.4382
 20
33.4491
 30
0.0
 11
51.8474
 21
38.1303
 31
0.0
  0
LINE
  8
0
 62
     0
 10
51.8474
 20
38.1303
 30
0.0
 11
53.3658
 21
37.998
 31
0.0
  0
LINE
  8
0
 62
     0
 10
53.3658
 20
37.998
 30
0.0
 11
53.0849
 21
34.7803
 31
0.0
  0
LINE
  8
0
 62
     0
 10
53.0849
 20
34.7803
 30
0.0
 11
59.8068
 21
34.1919
 31
0.0
  0
LINE
  8
0
 62
     0
 10
59.8068
 20
34.1919
 30
0.0
 11
60.0908
 21
37.4096
 31
0.0
  0
LINE
  8
0
 62
     0
 10
60.0908
 20
37.4096
 30
0.0
 11
60.912
 21
37.338
 31
0.0
  0
LINE
  8
0
 62
     0
 10
60.912
 20
37.338
 30
0.0
 11
61.1558
 21
40.1285
 31
0.0
  0
LINE
  8
0
 62
     0
 10
61.1558
 20
40.1285
 30
0.0
 11
60.3345
 21
40.1987
 31
0.0
  0
LINE
  8
0
 62
     0
 10
60.3345
 20
40.1987
 30
0.0
 11
60.8803
 21
46.4453
 31
0.0
  0
LINE
  8
0
 62
     0
 10
60.8803
 20
46.4453
 30
0.0
 11
59.1619
 21
46.5956
 31
0.0
  0
LINE
  8
0
 62
     0
 10
59.1619
 20
46.5956
 30
0.0
 11
59.2667
 21
47.7905
 31
0.0
  0
LINE
  8
0
 62
     0
 10
59.2667
 20
47.7905
 30
0.0
 11
55.9802
 21
48.0783
 31
0.0
  0
LINE
  8
0
 62
     0
 10
55.9802
 20
48.0783
 30
0.0
 11
55.874
 21
46.8835
 31
0.0
  0
LINE
  8
0
 62
     0
 10
55.874
 20
46.8835
 30
0.0
 11
54.157
 21
47.0337
 31
0.0
  0
LINE
  8
0
 62
     0
 10
54.157
 20
47.0337
 30
0.0
 11
53.7669
 21
42.5813
 31
0.0
  0
LINE
  8
0
 62
     0
 10
53.7669
 20
42.5813
 30
0.0
 11
52.2471
 21
42.7136
 31
0.0
  0
LINE
  8
0
 62
     0
 10
52.2471
 20
42.7136
 30
0.0
 11
52.6577
 21
47.3964
 31
0.0
  0
LINE
  8
0
 62
     0
 10
52.6577
 20
47.3964
 30
0.0
 11
38.7103
 21
48.616
 31
0.0
  0
LINE
  8
0
 62
     0
 10
38.7103
 20
48.616
 30
0.0
 11
38.2997
 21
43.9346
 31
0.0
  0
LINE
  8
0
 62
     0
 10
38.2997
 20
43.9346
 30
0.0
 11
36.7813
 21
44.0669
 31
0.0
  0
LINE
  8
0
 62
     0
 10
36.7813
 20
44.0669
 30
0.0
 11
37.1711
 21
48.5193
 31
0.0
  0
LINE
  8
0
 62
     0
 10
37.1711
 20
48.5193
 30
0.0
 11
35.4528
 21
48.6696
 31
0.0
  0
LINE
  8
0
 62
     0
 10
35.4528
 20
48.6696
 30
0.0
 11
35.5575
 21
49.8658
 31
0.0
  0
LINE
  8
0
 62
     0
 10
35.5575
 20
49.8658
 30
0.0
 11
32.2709
 21
50.1523
 31
0.0
  0
LINE
  8
0
 62
     0
 10
32.2709
 20
50.1523
 30
0.0
 11
32.1662
 21
48.9574
 31
0.0
  0
LINE
  8
0
 62
     0
 10
284.89
 20
47.8109
 30
0.0
 11
286.11
 21
33.8639
 31
0.0
  0
LINE
  8
0
 62
     0
 10
286.11
 20
33.8639
 30
0.0
 11
300.057
 21
35.0835
 31
0.0
  0
LINE
  8
0
 62
     0
 10
300.057
 20
35.0835
 30
0.0
 11
298.836
 21
49.0305
 31
0.0
  0
LINE
  8
0
 62
     0
 10
298.836
 20
49.0305
 30
0.0
 11
284.89
 21
47.8109
 31
0.0
  0
LINE
  8
0
 62
     0
 10
310.983
 20
50.0944
 30
0.0
 11
312.203
 21
36.1474
 31
0.0
  0
LINE
  8
0
 62
     0
 10
312.203
 20
36.1474
 30
0.0
 11
326.15
 21
37.3669
 31
0.0
  0
LINE
  8
0
 62
     0
 10
326.15
 20
37.3669
 30
0.0
 11
324.931
 21
51.314
 31
0.0
  0
LINE
  8
0
 62
     0
 10
324.931
 20
51.314
 30
0.0
 11
310.983
 21
50.0944
 31
0.0
  0
LINE
  8
0
 62
     0
 10
171.737
 20
57.0343
 30
0.0
 11
172.956
 21
43.0872
 31
0.0
  0
LINE
  8
0
 62
     0
 10
172.956
 20
43.0872
 30
0.0
 11
186.903
 21
44.3082
 31
0.0
  0
LINE
  8
0
 62
     0
 10
186.903
 20
44.3082
 30
0.0
 11
185.684
 21
58.2538
 31
0.0
  0
LINE
  8
0
 62
     0
 10
185.684
 20
58.2538
 30
0.0
 11
171.737
 21
57.0343
 31
0.0
  0
LINE
  8
0
 62
     0
 10
136.411
 20
45.1376
 30
0.0
 11
150.358
 21
43.918
 31
0.0
  0
LINE
  8
0
 62
     0
 10
150.358
 20
43.918
 30
0.0
 11
151.577
 21
57.8637
 31
0.0
  0
LINE
  8
0
 62
     0
 10
151.577
 20
57.8637
 30
0.0
 11
137.63
 21
59.0832
 31
0.0
  0
LINE
  8
0
 62
     0
 10
137.63
 20
59.0832
 30
0.0
 11
136.411
 21
45.1376
 31
0.0
  0
LINE
  8
0
 62
     0
 10
190.713
 20
58.6934
 30
0.0
 11
191.934
 21
44.7477
 31
0.0
  0
LINE
  8
0
 62
     0
 10
191.934
 20
44.7477
 30
0.0
 11
205.88
 21
45.9687
 31
0.0
  0
LINE
  8
0
 62
     0
 10
205.88
 20
45.9687
 30
0.0
 11
204.661
 21
59.9144
 31
0.0
  0
LINE
  8
0
 62
     0
 10
204.661
 20
59.9144
 30
0.0
 11
190.713
 21
58.6934
 31
0.0
  0
LINE
  8
0
 62
     0
 10
117.432
 20
46.7981
 30
0.0
 11
131.379
 21
45.5785
 31
0.0
  0
LINE
  8
0
 62
     0
 10
131.379
 20
45.5785
 30
0.0
 11
132.599
 21
59.5242
 31
0.0
  0
LINE
  8
0
 62
     0
 10
132.599
 20
59.5242
 30
0.0
 11
118.653
 21
60.7452
 31
0.0
  0
LINE
  8
0
 62
     0
 10
118.653
 20
60.7452
 30
0.0
 11
117.432
 21
46.7981
 31
0.0
  0
LINE
  8
0
 62
     0
 10
7.48273
 20
46.8559
 30
0.0
 11
21.4285
 21
45.6364
 31
0.0
  0
LINE
  8
0
 62
     0
 10
21.4285
 20
45.6364
 30
0.0
 11
22.6481
 21
59.5835
 31
0.0
  0
LINE
  8
0
 62
     0
 10
22.6481
 20
59.5835
 30
0.0
 11
8.70232
 21
60.803
 31
0.0
  0
LINE
  8
0
 62
     0
 10
8.70232
 20
60.803
 30
0.0
 11
7.48273
 21
46.8559
 31
0.0
  0
LINE
  8
0
 62
     0
 10
209.692
 20
60.3553
 30
0.0
 11
210.911
 21
46.4083
 31
0.0
  0
LINE
  8
0
 62
     0
 10
210.911
 20
46.4083
 30
0.0
 11
224.859
 21
47.6278
 31
0.0
  0
LINE
  8
0
 62
     0
 10
224.859
 20
47.6278
 30
0.0
 11
223.639
 21
61.5749
 31
0.0
  0
LINE
  8
0
 62
     0
 10
223.639
 20
61.5749
 30
0.0
 11
209.692
 21
60.3553
 31
0.0
  0
LINE
  8
0
 62
     0
 10
98.4553
 20
48.4572
 30
0.0
 11
112.402
 21
47.2376
 31
0.0
  0
LINE
  8
0
 62
     0
 10
112.402
 20
47.2376
 30
0.0
 11
113.622
 21
61.1851
 31
0.0
  0
LINE
  8
0
 62
     0
 10
113.622
 20
61.1851
 30
0.0
 11
99.6749
 21
62.4046
 31
0.0
  0
LINE
  8
0
 62
     0
 10
99.6749
 20
62.4046
 30
0.0
 11
98.4553
 21
48.4572
 31
0.0
  0
LINE
  8
0
 62
     0
 10
228.669
 20
62.0145
 30
0.0
 11
229.89
 21
48.0674
 31
0.0
  0
LINE
  8
0
 62
     0
 10
229.89
 20
48.0674
 30
0.0
 11
243.836
 21
49.2883
 31
0.0
  0
LINE
  8
0
 62
     0
 10
243.836
 20
49.2883
 30
0.0
 11
242.616
 21
63.2354
 31
0.0
  0
LINE
  8
0
 62
     0
 10
242.616
 20
63.2354
 30
0.0
 11
228.669
 21
62.0145
 31
0.0
  0
LINE
  8
0
 62
     0
 10
79.477
 20
50.1191
 30
0.0
 11
93.424
 21
48.8982
 31
0.0
  0
LINE
  8
0
 62
     0
 10
93.424
 20
48.8982
 30
0.0
 11
94.645
 21
62.8456
 31
0.0
  0
LINE
  8
0
 62
     0
 10
94.645
 20
62.8456
 30
0.0
 11
80.6979
 21
64.0652
 31
0.0
  0
LINE
  8
0
 62
     0
 10
80.6979
 20
64.0652
 30
0.0
 11
79.477
 21
50.1191
 31
0.0
  0
LINE
  8
0
 62
     0
 10
247.646
 20
63.675
 30
0.0
 11
248.867
 21
49.7293
 31
0.0
  0
LINE
  8
0
 62
     0
 10
248.867
 20
49.7293
 30
0.0
 11
262.814
 21
50.9489
 31
0.0
  0
LINE
  8
0
 62
     0
 10
262.814
 20
50.9489
 30
0.0
 11
261.593
 21
64.8959
 31
0.0
  0
LINE
  8
0
 62
     0
 10
261.593
 20
64.8959
 30
0.0
 11
247.646
 21
63.675
 31
0.0
  0
LINE
  8
0
 62
     0
 10
60.5
 20
51.7783
 30
0.0
 11
74.447
 21
50.5587
 31
0.0
  0
LINE
  8
0
 62
     0
 10
74.447
 20
50.5587
 30
0.0
 11
75.668
 21
64.5061
 31
0.0
  0
LINE
  8
0
 62
     0
 10
75.668
 20
64.5061
 30
0.0
 11
61.7209
 21
65.7257
 31
0.0
  0
LINE
  8
0
 62
     0
 10
61.7209
 20
65.7257
 30
0.0
 11
60.5
 21
51.7783
 31
0.0
  0
LINE
  8
0
 62
     0
 10
266.623
 20
65.3355
 30
0.0
 11
267.845
 21
51.3884
 31
0.0
  0
LINE
  8
0
 62
     0
 10
267.845
 20
51.3884
 30
0.0
 11
281.791
 21
52.6094
 31
0.0
  0
LINE
  8
0
 62
     0
 10
281.791
 20
52.6094
 30
0.0
 11
280.57
 21
66.5565
 31
0.0
  0
LINE
  8
0
 62
     0
 10
280.57
 20
66.5565
 30
0.0
 11
266.623
 21
65.3355
 31
0.0
  0
LINE
  8
0
 62
     0
 10
34.4069
 20
54.0618
 30
0.0
 11
48.3538
 21
52.8422
 31
0.0
  0
LINE
  8
0
 62
     0
 10
48.3538
 20
52.8422
 30
0.0
 11
49.5734
 21
66.7893
 31
0.0
  0
LINE
  8
0
 62
     0
 10
49.5734
 20
66.7893
 30
0.0
 11
35.6263
 21
68.0089
 31
0.0
  0
LINE
  8
0
 62
     0
 10
35.6263
 20
68.0089
 30
0.0
 11
34.4069
 21
54.0618
 31
0.0
  0
LINE
  8
0
 62
     0
 10
285.601
 20
66.996
 30
0.0
 11
286.822
 21
53.049
 31
0.0
  0
LINE
  8
0
 62
     0
 10
286.822
 20
53.049
 30
0.0
 11
300.768
 21
54.2699
 31
0.0
  0
LINE
  8
0
 62
     0
 10
300.768
 20
54.2699
 30
0.0
 11
299.548
 21
68.2156
 31
0.0
  0
LINE
  8
0
 62
     0
 10
299.548
 20
68.2156
 30
0.0
 11
285.601
 21
66.996
 31
0.0
  0
LINE
  8
0
 62
     0
 10
311.803
 20
87.9849
 30
0.0
 11
311.875
 21
87.1622
 31
0.0
  0
LINE
  8
0
 62
     0
 10
311.875
 20
87.1622
 30
0.0
 11
305.628
 21
86.6165
 31
0.0
  0
LINE
  8
0
 62
     0
 10
305.628
 20
86.6165
 30
0.0
 11
305.78
 21
84.8981
 31
0.0
  0
LINE
  8
0
 62
     0
 10
305.78
 20
84.8981
 30
0.0
 11
304.584
 21
84.7933
 31
0.0
  0
LINE
  8
0
 62
     0
 10
304.584
 20
84.7933
 30
0.0
 11
304.872
 21
81.5054
 31
0.0
  0
LINE
  8
0
 62
     0
 10
304.872
 20
81.5054
 30
0.0
 11
306.066
 21
81.6102
 31
0.0
  0
LINE
  8
0
 62
     0
 10
306.066
 20
81.6102
 30
0.0
 11
306.218
 21
79.8918
 31
0.0
  0
LINE
  8
0
 62
     0
 10
306.218
 20
79.8918
 30
0.0
 11
310.671
 21
80.2802
 31
0.0
  0
LINE
  8
0
 62
     0
 10
310.671
 20
80.2802
 30
0.0
 11
310.804
 21
78.7633
 31
0.0
  0
LINE
  8
0
 62
     0
 10
310.804
 20
78.7633
 30
0.0
 11
306.121
 21
78.3527
 31
0.0
  0
LINE
  8
0
 62
     0
 10
306.121
 20
78.3527
 30
0.0
 11
307.341
 21
64.4052
 31
0.0
  0
LINE
  8
0
 62
     0
 10
307.341
 20
64.4052
 30
0.0
 11
312.024
 21
64.8159
 31
0.0
  0
LINE
  8
0
 62
     0
 10
312.024
 20
64.8159
 30
0.0
 11
312.156
 21
63.2961
 31
0.0
  0
LINE
  8
0
 62
     0
 10
312.156
 20
63.2961
 30
0.0
 11
307.703
 21
62.9073
 31
0.0
  0
LINE
  8
0
 62
     0
 10
307.703
 20
62.9073
 30
0.0
 11
307.854
 21
61.1875
 31
0.0
  0
LINE
  8
0
 62
     0
 10
307.854
 20
61.1875
 30
0.0
 11
306.659
 21
61.0842
 31
0.0
  0
LINE
  8
0
 62
     0
 10
306.659
 20
61.0842
 30
0.0
 11
306.946
 21
57.7963
 31
0.0
  0
LINE
  8
0
 62
     0
 10
306.946
 20
57.7963
 30
0.0
 11
308.142
 21
57.9011
 31
0.0
  0
LINE
  8
0
 62
     0
 10
308.142
 20
57.9011
 30
0.0
 11
308.292
 21
56.1827
 31
0.0
  0
LINE
  8
0
 62
     0
 10
308.292
 20
56.1827
 30
0.0
 11
314.537
 21
56.7284
 31
0.0
  0
LINE
  8
0
 62
     0
 10
314.537
 20
56.7284
 30
0.0
 11
314.609
 21
55.9072
 31
0.0
  0
LINE
  8
0
 62
     0
 10
314.609
 20
55.9072
 30
0.0
 11
317.398
 21
56.1509
 31
0.0
  0
LINE
  8
0
 62
     0
 10
317.398
 20
56.1509
 30
0.0
 11
317.328
 21
56.9736
 31
0.0
  0
LINE
  8
0
 62
     0
 10
317.328
 20
56.9736
 30
0.0
 11
320.544
 21
57.2534
 31
0.0
  0
LINE
  8
0
 62
     0
 10
320.544
 20
57.2534
 30
0.0
 11
319.957
 21
63.9794
 31
0.0
  0
LINE
  8
0
 62
     0
 10
319.957
 20
63.9794
 30
0.0
 11
316.738
 21
63.6972
 31
0.0
  0
LINE
  8
0
 62
     0
 10
316.738
 20
63.6972
 30
0.0
 11
316.606
 21
65.2156
 31
0.0
  0
LINE
  8
0
 62
     0
 10
316.606
 20
65.2156
 30
0.0
 11
321.287
 21
65.6262
 31
0.0
  0
LINE
  8
0
 62
     0
 10
321.287
 20
65.6262
 30
0.0
 11
320.067
 21
79.5736
 31
0.0
  0
LINE
  8
0
 62
     0
 10
320.067
 20
79.5736
 30
0.0
 11
315.386
 21
79.1626
 31
0.0
  0
LINE
  8
0
 62
     0
 10
315.386
 20
79.1626
 30
0.0
 11
315.252
 21
80.6813
 31
0.0
  0
LINE
  8
0
 62
     0
 10
315.252
 20
80.6813
 30
0.0
 11
318.47
 21
80.9639
 31
0.0
  0
LINE
  8
0
 62
     0
 10
318.47
 20
80.9639
 30
0.0
 11
317.883
 21
87.6875
 31
0.0
  0
LINE
  8
0
 62
     0
 10
317.883
 20
87.6875
 30
0.0
 11
314.664
 21
87.4078
 31
0.0
  0
LINE
  8
0
 62
     0
 10
314.664
 20
87.4078
 30
0.0
 11
314.592
 21
88.229
 31
0.0
  0
LINE
  8
0
 62
     0
 10
314.592
 20
88.229
 30
0.0
 11
311.803
 21
87.9849
 31
0.0
  0
LINE
  8
0
 62
     0
 10
165.331
 20
75.5964
 30
0.0
 11
166.551
 21
61.6493
 31
0.0
  0
LINE
  8
0
 62
     0
 10
166.551
 20
61.6493
 30
0.0
 11
180.498
 21
62.8703
 31
0.0
  0
LINE
  8
0
 62
     0
 10
180.498
 20
62.8703
 30
0.0
 11
179.278
 21
76.8174
 31
0.0
  0
LINE
  8
0
 62
     0
 10
179.278
 20
76.8174
 30
0.0
 11
165.331
 21
75.5964
 31
0.0
  0
LINE
  8
0
 62
     0
 10
133.327
 20
64.5294
 30
0.0
 11
147.274
 21
63.3099
 31
0.0
  0
LINE
  8
0
 62
     0
 10
147.274
 20
63.3099
 30
0.0
 11
148.493
 21
77.2569
 31
0.0
  0
LINE
  8
0
 62
     0
 10
148.493
 20
77.2569
 30
0.0
 11
134.546
 21
78.4765
 31
0.0
  0
LINE
  8
0
 62
     0
 10
134.546
 20
78.4765
 30
0.0
 11
133.327
 21
64.5294
 31
0.0
  0
LINE
  8
0
 62
     0
 10
184.31
 20
77.2569
 30
0.0
 11
185.529
 21
63.3099
 31
0.0
  0
LINE
  8
0
 62
     0
 10
185.529
 20
63.3099
 30
0.0
 11
199.476
 21
64.5294
 31
0.0
  0
LINE
  8
0
 62
     0
 10
199.476
 20
64.5294
 30
0.0
 11
198.255
 21
78.4765
 31
0.0
  0
LINE
  8
0
 62
     0
 10
198.255
 20
78.4765
 30
0.0
 11
184.31
 21
77.2569
 31
0.0
  0
LINE
  8
0
 62
     0
 10
9.14192
 20
65.8343
 30
0.0
 11
23.089
 21
64.6134
 31
0.0
  0
LINE
  8
0
 62
     0
 10
23.089
 20
64.6134
 30
0.0
 11
24.31
 21
78.5604
 31
0.0
  0
LINE
  8
0
 62
     0
 10
24.31
 20
78.5604
 30
0.0
 11
10.3628
 21
79.78
 31
0.0
  0
LINE
  8
0
 62
     0
 10
10.3628
 20
79.78
 30
0.0
 11
9.14192
 21
65.8343
 31
0.0
  0
LINE
  8
0
 62
     0
 10
114.348
 20
66.1913
 30
0.0
 11
128.295
 21
64.9704
 31
0.0
  0
LINE
  8
0
 62
     0
 10
128.295
 20
64.9704
 30
0.0
 11
129.515
 21
78.9174
 31
0.0
  0
LINE
  8
0
 62
     0
 10
129.515
 20
78.9174
 30
0.0
 11
115.569
 21
80.137
 31
0.0
  0
LINE
  8
0
 62
     0
 10
115.569
 20
80.137
 30
0.0
 11
114.348
 21
66.1913
 31
0.0
  0
LINE
  8
0
 62
     0
 10
203.287
 20
78.9174
 30
0.0
 11
204.506
 21
64.9704
 31
0.0
  0
LINE
  8
0
 62
     0
 10
204.506
 20
64.9704
 30
0.0
 11
218.453
 21
66.1913
 31
0.0
  0
LINE
  8
0
 62
     0
 10
218.453
 20
66.1913
 30
0.0
 11
217.234
 21
80.137
 31
0.0
  0
LINE
  8
0
 62
     0
 10
217.234
 20
80.137
 30
0.0
 11
203.287
 21
78.9174
 31
0.0
  0
LINE
  8
0
 62
     0
 10
95.3714
 20
67.8505
 30
0.0
 11
109.318
 21
66.6309
 31
0.0
  0
LINE
  8
0
 62
     0
 10
109.318
 20
66.6309
 30
0.0
 11
110.538
 21
80.578
 31
0.0
  0
LINE
  8
0
 62
     0
 10
110.538
 20
80.578
 30
0.0
 11
96.5909
 21
81.7975
 31
0.0
  0
LINE
  8
0
 62
     0
 10
96.5909
 20
81.7975
 30
0.0
 11
95.3714
 21
67.8505
 31
0.0
  0
LINE
  8
0
 62
     0
 10
222.265
 20
80.578
 30
0.0
 11
223.485
 21
66.6309
 31
0.0
  0
LINE
  8
0
 62
     0
 10
223.485
 20
66.6309
 30
0.0
 11
237.432
 21
67.8505
 31
0.0
  0
LINE
  8
0
 62
     0
 10
237.432
 20
67.8505
 30
0.0
 11
236.211
 21
81.7975
 31
0.0
  0
LINE
  8
0
 62
     0
 10
236.211
 20
81.7975
 30
0.0
 11
222.265
 21
80.578
 31
0.0
  0
LINE
  8
0
 62
     0
 10
76.393
 20
69.511
 30
0.0
 11
90.34
 21
68.2914
 31
0.0
  0
LINE
  8
0
 62
     0
 10
90.34
 20
68.2914
 30
0.0
 11
91.561
 21
82.2385
 31
0.0
  0
LINE
  8
0
 62
     0
 10
91.561
 20
82.2385
 30
0.0
 11
77.6139
 21
83.4581
 31
0.0
  0
LINE
  8
0
 62
     0
 10
77.6139
 20
83.4581
 30
0.0
 11
76.393
 21
69.511
 31
0.0
  0
LINE
  8
0
 62
     0
 10
241.242
 20
82.2385
 30
0.0
 11
242.462
 21
68.2914
 31
0.0
  0
LINE
  8
0
 62
     0
 10
242.462
 20
68.2914
 30
0.0
 11
256.409
 21
69.511
 31
0.0
  0
LINE
  8
0
 62
     0
 10
256.409
 20
69.511
 30
0.0
 11
255.188
 21
83.4581
 31
0.0
  0
LINE
  8
0
 62
     0
 10
255.188
 20
83.4581
 30
0.0
 11
241.242
 21
82.2385
 31
0.0
  0
LINE
  8
0
 62
     0
 10
57.416
 20
71.1715
 30
0.0
 11
71.3631
 21
69.9505
 31
0.0
  0
LINE
  8
0
 62
     0
 10
71.3631
 20
69.9505
 30
0.0
 11
72.584
 21
83.8976
 31
0.0
  0
LINE
  8
0
 62
     0
 10
72.584
 20
83.8976
 30
0.0
 11
58.637
 21
85.1172
 31
0.0
  0
LINE
  8
0
 62
     0
 10
58.637
 20
85.1172
 30
0.0
 11
57.416
 21
71.1715
 31
0.0
  0
LINE
  8
0
 62
     0
 10
260.219
 20
83.8976
 30
0.0
 11
261.44
 21
69.9505
 31
0.0
  0
LINE
  8
0
 62
     0
 10
261.44
 20
69.9505
 30
0.0
 11
275.387
 21
71.1715
 31
0.0
  0
LINE
  8
0
 62
     0
 10
275.387
 20
71.1715
 30
0.0
 11
274.165
 21
85.1172
 31
0.0
  0
LINE
  8
0
 62
     0
 10
274.165
 20
85.1172
 30
0.0
 11
260.219
 21
83.8976
 31
0.0
  0
LINE
  8
0
 62
     0
 10
279.196
 20
85.5581
 30
0.0
 11
280.417
 21
71.6125
 31
0.0
  0
LINE
  8
0
 62
     0
 10
280.417
 20
71.6125
 30
0.0
 11
294.364
 21
72.832
 31
0.0
  0
LINE
  8
0
 62
     0
 10
294.364
 20
72.832
 30
0.0
 11
293.143
 21
86.7791
 31
0.0
  0
LINE
  8
0
 62
     0
 10
293.143
 20
86.7791
 30
0.0
 11
279.196
 21
85.5581
 31
0.0
  0
LINE
  8
0
 62
     0
 10
33.6944
 20
73.2469
 30
0.0
 11
47.6416
 21
72.0273
 31
0.0
  0
LINE
  8
0
 62
     0
 10
47.6416
 20
72.0273
 30
0.0
 11
48.8611
 21
85.9744
 31
0.0
  0
LINE
  8
0
 62
     0
 10
48.8611
 20
85.9744
 30
0.0
 11
34.914
 21
87.194
 31
0.0
  0
LINE
  8
0
 62
     0
 10
34.914
 20
87.194
 30
0.0
 11
33.6944
 21
73.2469
 31
0.0
  0
LINE
  8
0
 62
     0
 10
144.475
 20
82.6781
 30
0.0
 11
158.422
 21
81.4585
 31
0.0
  0
LINE
  8
0
 62
     0
 10
158.422
 20
81.4585
 30
0.0
 11
159.643
 21
95.4045
 31
0.0
  0
LINE
  8
0
 62
     0
 10
159.643
 20
95.4045
 30
0.0
 11
145.696
 21
96.6241
 31
0.0
  0
LINE
  8
0
 62
     0
 10
145.696
 20
96.6241
 30
0.0
 11
144.475
 21
82.6781
 31
0.0
  0
LINE
  8
0
 62
     0
 10
173.16
 20
95.4045
 30
0.0
 11
174.381
 21
81.4585
 31
0.0
  0
LINE
  8
0
 62
     0
 10
174.381
 20
81.4585
 30
0.0
 11
188.327
 21
82.6781
 31
0.0
  0
LINE
  8
0
 62
     0
 10
188.327
 20
82.6781
 30
0.0
 11
187.106
 21
96.6241
 31
0.0
  0
LINE
  8
0
 62
     0
 10
187.106
 20
96.6241
 30
0.0
 11
173.16
 21
95.4045
 31
0.0
  0
LINE
  8
0
 62
     0
 10
125.496
 20
84.3372
 30
0.0
 11
139.445
 21
83.1176
 31
0.0
  0
LINE
  8
0
 62
     0
 10
139.445
 20
83.1176
 30
0.0
 11
140.664
 21
97.065
 31
0.0
  0
LINE
  8
0
 62
     0
 10
140.664
 20
97.065
 30
0.0
 11
126.719
 21
98.2846
 31
0.0
  0
LINE
  8
0
 62
     0
 10
126.719
 20
98.2846
 30
0.0
 11
125.496
 21
84.3372
 31
0.0
  0
LINE
  8
0
 62
     0
 10
192.137
 20
97.065
 30
0.0
 11
193.358
 21
83.1176
 31
0.0
  0
LINE
  8
0
 62
     0
 10
193.358
 20
83.1176
 30
0.0
 11
207.305
 21
84.3372
 31
0.0
  0
LINE
  8
0
 62
     0
 10
207.305
 20
84.3372
 30
0.0
 11
206.084
 21
98.2846
 31
0.0
  0
LINE
  8
0
 62
     0
 10
206.084
 20
98.2846
 30
0.0
 11
192.137
 21
97.065
 31
0.0
  0
LINE
  8
0
 62
     0
 10
10.8024
 20
84.8113
 30
0.0
 11
24.7496
 21
83.5903
 31
0.0
  0
LINE
  8
0
 62
     0
 10
24.7496
 20
83.5903
 30
0.0
 11
25.9691
 21
97.5374
 31
0.0
  0
LINE
  8
0
 62
     0
 10
25.9691
 20
97.5374
 30
0.0
 11
12.022
 21
98.7584
 31
0.0
  0
LINE
  8
0
 62
     0
 10
12.022
 20
98.7584
 30
0.0
 11
10.8024
 21
84.8113
 31
0.0
  0
LINE
  8
0
 62
     0
 10
106.521
 20
85.9977
 30
0.0
 11
120.468
 21
84.7781
 31
0.0
  0
LINE
  8
0
 62
     0
 10
120.468
 20
84.7781
 30
0.0
 11
121.688
 21
98.7256
 31
0.0
  0
LINE
  8
0
 62
     0
 10
121.688
 20
98.7256
 30
0.0
 11
107.74
 21
99.9451
 31
0.0
  0
LINE
  8
0
 62
     0
 10
107.74
 20
99.9451
 30
0.0
 11
106.521
 21
85.9977
 31
0.0
  0
LINE
  8
0
 62
     0
 10
211.116
 20
98.7256
 30
0.0
 11
212.335
 21
84.7781
 31
0.0
  0
LINE
  8
0
 62
     0
 10
212.335
 20
84.7781
 30
0.0
 11
226.282
 21
85.9977
 31
0.0
  0
LINE
  8
0
 62
     0
 10
226.282
 20
85.9977
 30
0.0
 11
225.061
 21
99.9451
 31
0.0
  0
LINE
  8
0
 62
     0
 10
225.061
 20
99.9451
 30
0.0
 11
211.116
 21
98.7256
 31
0.0
  0
LINE
  8
0
 62
     0
 10
87.5425
 20
87.6582
 30
0.0
 11
101.49
 21
86.4376
 31
0.0
  0
LINE
  8
0
 62
     0
 10
101.49
 20
86.4376
 30
0.0
 11
102.709
 21
100.385
 31
0.0
  0
LINE
  8
0
 62
     0
 10
102.709
 20
100.385
 30
0.0
 11
88.7635
 21
101.606
 31
0.0
  0
LINE
  8
0
 62
     0
 10
88.7635
 20
101.606
 30
0.0
 11
87.5425
 21
87.6582
 31
0.0
  0
LINE
  8
0
 62
     0
 10
230.092
 20
100.385
 30
0.0
 11
231.312
 21
86.4376
 31
0.0
  0
LINE
  8
0
 62
     0
 10
231.312
 20
86.4376
 30
0.0
 11
245.259
 21
87.6582
 31
0.0
  0
LINE
  8
0
 62
     0
 10
245.259
 20
87.6582
 30
0.0
 11
244.04
 21
101.606
 31
0.0
  0
LINE
  8
0
 62
     0
 10
244.04
 20
101.606
 30
0.0
 11
230.092
 21
100.385
 31
0.0
  0
LINE
  8
0
 62
     0
 10
68.5655
 20
89.3191
 30
0.0
 11
82.513
 21
88.0992
 31
0.0
  0
LINE
  8
0
 62
     0
 10
82.513
 20
88.0992
 30
0.0
 11
83.7325
 21
102.047
 31
0.0
  0
LINE
  8
0
 62
     0
 10
83.7325
 20
102.047
 30
0.0
 11
69.7851
 21
103.266
 31
0.0
  0
LINE
  8
0
 62
     0
 10
69.7851
 20
103.266
 30
0.0
 11
68.5655
 21
89.3191
 31
0.0
  0
LINE
  8
0
 62
     0
 10
249.071
 20
102.047
 30
0.0
 11
250.29
 21
88.0992
 31
0.0
  0
LINE
  8
0
 62
     0
 10
250.29
 20
88.0992
 30
0.0
 11
264.238
 21
89.3191
 31
0.0
  0
LINE
  8
0
 62
     0
 10
264.238
 20
89.3191
 30
0.0
 11
263.017
 21
103.266
 31
0.0
  0
LINE
  8
0
 62
     0
 10
263.017
 20
103.266
 30
0.0
 11
249.071
 21
102.047
 31
0.0
  0
LINE
  8
0
 62
     0
 10
49.5875
 20
90.9796
 30
0.0
 11
63.5346
 21
89.7587
 31
0.0
  0
LINE
  8
0
 62
     0
 10
63.5346
 20
89.7587
 30
0.0
 11
64.7541
 21
103.706
 31
0.0
  0
LINE
  8
0
 62
     0
 10
64.7541
 20
103.706
 30
0.0
 11
50.8081
 21
104.927
 31
0.0
  0
LINE
  8
0
 62
     0
 10
50.8081
 20
104.927
 30
0.0
 11
49.5875
 21
90.9796
 31
0.0
  0
LINE
  8
0
 62
     0
 10
268.048
 20
103.706
 30
0.0
 11
269.267
 21
89.7587
 31
0.0
  0
LINE
  8
0
 62
     0
 10
269.267
 20
89.7587
 30
0.0
 11
283.215
 21
90.9796
 31
0.0
  0
LINE
  8
0
 62
     0
 10
283.215
 20
90.9796
 30
0.0
 11
281.995
 21
104.927
 31
0.0
  0
LINE
  8
0
 62
     0
 10
281.995
 20
104.927
 30
0.0
 11
268.048
 21
103.706
 31
0.0
  0
LINE
  8
0
 62
     0
 10
296.514
 20
106.196
 30
0.0
 11
296.923
 21
101.515
 31
0.0
  0
LINE
  8
0
 62
     0
 10
296.923
 20
101.515
 30
0.0
 11
295.404
 21
101.381
 31
0.0
  0
LINE
  8
0
 62
     0
 10
295.404
 20
101.381
 30
0.0
 11
295.122
 21
104.599
 31
0.0
  0
LINE
  8
0
 62
     0
 10
295.122
 20
104.599
 30
0.0
 11
288.399
 21
104.012
 31
0.0
  0
LINE
  8
0
 62
     0
 10
288.399
 20
104.012
 30
0.0
 11
288.681
 21
100.792
 31
0.0
  0
LINE
  8
0
 62
     0
 10
288.681
 20
100.792
 30
0.0
 11
287.859
 21
100.721
 31
0.0
  0
LINE
  8
0
 62
     0
 10
287.859
 20
100.721
 30
0.0
 11
288.102
 21
97.9318
 31
0.0
  0
LINE
  8
0
 62
     0
 10
288.102
 20
97.9318
 30
0.0
 11
288.925
 21
98.0034
 31
0.0
  0
LINE
  8
0
 62
     0
 10
288.925
 20
98.0034
 30
0.0
 11
289.471
 21
91.7568
 31
0.0
  0
LINE
  8
0
 62
     0
 10
289.471
 20
91.7568
 30
0.0
 11
291.189
 21
91.9081
 31
0.0
  0
LINE
  8
0
 62
     0
 10
291.189
 20
91.9081
 30
0.0
 11
291.294
 21
90.7122
 31
0.0
  0
LINE
  8
0
 62
     0
 10
291.294
 20
90.7122
 30
0.0
 11
294.582
 21
91.0001
 31
0.0
  0
LINE
  8
0
 62
     0
 10
294.582
 20
91.0001
 30
0.0
 11
294.477
 21
92.1949
 31
0.0
  0
LINE
  8
0
 62
     0
 10
294.477
 20
92.1949
 30
0.0
 11
296.194
 21
92.3466
 31
0.0
  0
LINE
  8
0
 62
     0
 10
296.194
 20
92.3466
 30
0.0
 11
295.806
 21
96.799
 31
0.0
  0
LINE
  8
0
 62
     0
 10
295.806
 20
96.799
 30
0.0
 11
297.324
 21
96.9327
 31
0.0
  0
LINE
  8
0
 62
     0
 10
297.324
 20
96.9327
 30
0.0
 11
297.735
 21
92.25
 31
0.0
  0
LINE
  8
0
 62
     0
 10
297.735
 20
92.25
 30
0.0
 11
311.681
 21
93.4695
 31
0.0
  0
LINE
  8
0
 62
     0
 10
311.681
 20
93.4695
 30
0.0
 11
311.27
 21
98.1523
 31
0.0
  0
LINE
  8
0
 62
     0
 10
311.27
 20
98.1523
 30
0.0
 11
312.79
 21
98.2846
 31
0.0
  0
LINE
  8
0
 62
     0
 10
312.79
 20
98.2846
 30
0.0
 11
313.18
 21
93.8318
 31
0.0
  0
LINE
  8
0
 62
     0
 10
313.18
 20
93.8318
 30
0.0
 11
314.898
 21
93.9821
 31
0.0
  0
LINE
  8
0
 62
     0
 10
314.898
 20
93.9821
 30
0.0
 11
315.003
 21
92.7876
 31
0.0
  0
LINE
  8
0
 62
     0
 10
315.003
 20
92.7876
 30
0.0
 11
318.291
 21
93.0741
 31
0.0
  0
LINE
  8
0
 62
     0
 10
318.291
 20
93.0741
 30
0.0
 11
318.185
 21
94.2703
 31
0.0
  0
LINE
  8
0
 62
     0
 10
318.185
 20
94.2703
 30
0.0
 11
319.905
 21
94.4203
 31
0.0
  0
LINE
  8
0
 62
     0
 10
319.905
 20
94.4203
 30
0.0
 11
319.358
 21
100.666
 31
0.0
  0
LINE
  8
0
 62
     0
 10
319.358
 20
100.666
 30
0.0
 11
320.179
 21
100.737
 31
0.0
  0
LINE
  8
0
 62
     0
 10
320.179
 20
100.737
 30
0.0
 11
319.935
 21
103.527
 31
0.0
  0
LINE
  8
0
 62
     0
 10
319.935
 20
103.527
 30
0.0
 11
319.114
 21
103.456
 31
0.0
  0
LINE
  8
0
 62
     0
 10
319.114
 20
103.456
 30
0.0
 11
318.832
 21
106.673
 31
0.0
  0
LINE
  8
0
 62
     0
 10
318.832
 20
106.673
 30
0.0
 11
312.109
 21
106.086
 31
0.0
  0
LINE
  8
0
 62
     0
 10
312.109
 20
106.086
 30
0.0
 11
312.389
 21
102.866
 31
0.0
  0
LINE
  8
0
 62
     0
 10
312.389
 20
102.866
 30
0.0
 11
310.87
 21
102.734
 31
0.0
  0
LINE
  8
0
 62
     0
 10
310.87
 20
102.734
 30
0.0
 11
310.461
 21
107.415
 31
0.0
  0
LINE
  8
0
 62
     0
 10
310.461
 20
107.415
 30
0.0
 11
296.514
 21
106.196
 31
0.0
  0
LINE
  8
0
 62
     0
 10
30.6104
 20
92.6401
 30
0.0
 11
44.5576
 21
91.4192
 31
0.0
  0
LINE
  8
0
 62
     0
 10
44.5576
 20
91.4192
 30
0.0
 11
45.7771
 21
105.366
 31
0.0
  0
LINE
  8
0
 62
     0
 10
45.7771
 20
105.366
 30
0.0
 11
31.8299
 21
106.586
 31
0.0
  0
LINE
  8
0
 62
     0
 10
31.8299
 20
106.586
 30
0.0
 11
30.6104
 21
92.6401
 31
0.0
  0
LINE
  8
0
 62
     0
 10
146.135
 20
101.655
 30
0.0
 11
160.082
 21
100.435
 31
0.0
  0
LINE
  8
0
 62
     0
 10
160.082
 20
100.435
 30
0.0
 11
161.302
 21
114.381
 31
0.0
  0
LINE
  8
0
 62
     0
 10
161.302
 20
114.381
 30
0.0
 11
147.355
 21
115.602
 31
0.0
  0
LINE
  8
0
 62
     0
 10
147.355
 20
115.602
 30
0.0
 11
146.135
 21
101.655
 31
0.0
  0
LINE
  8
0
 62
     0
 10
171.5
 20
114.381
 30
0.0
 11
172.721
 21
100.435
 31
0.0
  0
LINE
  8
0
 62
     0
 10
172.721
 20
100.435
 30
0.0
 11
186.666
 21
101.655
 31
0.0
  0
LINE
  8
0
 62
     0
 10
186.666
 20
101.655
 30
0.0
 11
185.447
 21
115.602
 31
0.0
  0
LINE
  8
0
 62
     0
 10
185.447
 20
115.602
 30
0.0
 11
171.5
 21
114.381
 31
0.0
  0
LINE
  8
0
 62
     0
 10
127.158
 20
103.316
 30
0.0
 11
141.104
 21
102.095
 31
0.0
  0
LINE
  8
0
 62
     0
 10
141.104
 20
102.095
 30
0.0
 11
142.325
 21
116.042
 31
0.0
  0
LINE
  8
0
 62
     0
 10
142.325
 20
116.042
 30
0.0
 11
128.378
 21
117.262
 31
0.0
  0
LINE
  8
0
 62
     0
 10
128.378
 20
117.262
 30
0.0
 11
127.158
 21
103.316
 31
0.0
  0
LINE
  8
0
 62
     0
 10
190.478
 20
116.042
 30
0.0
 11
191.698
 21
102.095
 31
0.0
  0
LINE
  8
0
 62
     0
 10
191.698
 20
102.095
 30
0.0
 11
205.645
 21
103.316
 31
0.0
  0
LINE
  8
0
 62
     0
 10
205.645
 20
103.316
 30
0.0
 11
204.425
 21
117.262
 31
0.0
  0
LINE
  8
0
 62
     0
 10
204.425
 20
117.262
 30
0.0
 11
190.478
 21
116.042
 31
0.0
  0
LINE
  8
0
 62
     0
 10
12.463
 20
103.788
 30
0.0
 11
26.4101
 21
102.567
 31
0.0
  0
LINE
  8
0
 62
     0
 10
26.4101
 20
102.567
 30
0.0
 11
27.6297
 21
116.514
 31
0.0
  0
LINE
  8
0
 62
     0
 10
27.6297
 20
116.514
 30
0.0
 11
13.6839
 21
117.735
 31
0.0
  0
LINE
  8
0
 62
     0
 10
13.6839
 20
117.735
 30
0.0
 11
12.463
 21
103.788
 31
0.0
  0
LINE
  8
0
 62
     0
 10
108.18
 20
104.976
 30
0.0
 11
122.127
 21
103.757
 31
0.0
  0
LINE
  8
0
 62
     0
 10
122.127
 20
103.757
 30
0.0
 11
123.347
 21
117.703
 31
0.0
  0
LINE
  8
0
 62
     0
 10
123.347
 20
117.703
 30
0.0
 11
109.401
 21
118.923
 31
0.0
  0
LINE
  8
0
 62
     0
 10
109.401
 20
118.923
 30
0.0
 11
108.18
 21
104.976
 31
0.0
  0
LINE
  8
0
 62
     0
 10
209.455
 20
117.703
 30
0.0
 11
210.676
 21
103.757
 31
0.0
  0
LINE
  8
0
 62
     0
 10
210.676
 20
103.757
 30
0.0
 11
224.622
 21
104.976
 31
0.0
  0
LINE
  8
0
 62
     0
 10
224.622
 20
104.976
 30
0.0
 11
223.402
 21
118.923
 31
0.0
  0
LINE
  8
0
 62
     0
 10
223.402
 20
118.923
 30
0.0
 11
209.455
 21
117.703
 31
0.0
  0
LINE
  8
0
 62
     0
 10
89.203
 20
106.635
 30
0.0
 11
103.149
 21
105.416
 31
0.0
  0
LINE
  8
0
 62
     0
 10
103.149
 20
105.416
 30
0.0
 11
104.37
 21
119.363
 31
0.0
  0
LINE
  8
0
 62
     0
 10
104.37
 20
119.363
 30
0.0
 11
90.424
 21
120.583
 31
0.0
  0
LINE
  8
0
 62
     0
 10
90.424
 20
120.583
 30
0.0
 11
89.203
 21
106.635
 31
0.0
  0
LINE
  8
0
 62
     0
 10
228.432
 20
119.363
 30
0.0
 11
229.653
 21
105.416
 31
0.0
  0
LINE
  8
0
 62
     0
 10
229.653
 20
105.416
 30
0.0
 11
243.6
 21
106.635
 31
0.0
  0
LINE
  8
0
 62
     0
 10
243.6
 20
106.635
 30
0.0
 11
242.379
 21
120.583
 31
0.0
  0
LINE
  8
0
 62
     0
 10
242.379
 20
120.583
 30
0.0
 11
228.432
 21
119.363
 31
0.0
  0
LINE
  8
0
 62
     0
 10
70.225
 20
108.296
 30
0.0
 11
84.1721
 21
107.076
 31
0.0
  0
LINE
  8
0
 62
     0
 10
84.1721
 20
107.076
 30
0.0
 11
85.393
 21
121.024
 31
0.0
  0
LINE
  8
0
 62
     0
 10
85.393
 20
121.024
 30
0.0
 11
71.4456
 21
122.243
 31
0.0
  0
LINE
  8
0
 62
     0
 10
71.4456
 20
122.243
 30
0.0
 11
70.225
 21
108.296
 31
0.0
  0
LINE
  8
0
 62
     0
 10
247.409
 20
121.024
 30
0.0
 11
248.631
 21
107.076
 31
0.0
  0
LINE
  8
0
 62
     0
 10
248.631
 20
107.076
 30
0.0
 11
262.577
 21
108.296
 31
0.0
  0
LINE
  8
0
 62
     0
 10
262.577
 20
108.296
 30
0.0
 11
261.356
 21
122.243
 31
0.0
  0
LINE
  8
0
 62
     0
 10
261.356
 20
122.243
 30
0.0
 11
247.409
 21
121.024
 31
0.0
  0
LINE
  8
0
 62
     0
 10
51.248
 20
109.957
 30
0.0
 11
65.1951
 21
108.737
 31
0.0
  0
LINE
  8
0
 62
     0
 10
65.1951
 20
108.737
 30
0.0
 11
66.4161
 21
122.683
 31
0.0
  0
LINE
  8
0
 62
     0
 10
66.4161
 20
122.683
 30
0.0
 11
52.4686
 21
123.904
 31
0.0
  0
LINE
  8
0
 62
     0
 10
52.4686
 20
123.904
 30
0.0
 11
51.248
 21
109.957
 31
0.0
  0
LINE
  8
0
 62
     0
 10
266.387
 20
122.683
 30
0.0
 11
267.608
 21
108.737
 31
0.0
  0
LINE
  8
0
 62
     0
 10
267.608
 20
108.737
 30
0.0
 11
281.554
 21
109.957
 31
0.0
  0
LINE
  8
0
 62
     0
 10
281.554
 20
109.957
 30
0.0
 11
280.334
 21
123.904
 31
0.0
  0
LINE
  8
0
 62
     0
 10
280.334
 20
123.904
 30
0.0
 11
266.387
 21
122.683
 31
0.0
  0
LINE
  8
0
 62
     0
 10
32.2709
 20
111.617
 30
0.0
 11
46.2181
 21
110.398
 31
0.0
  0
LINE
  8
0
 62
     0
 10
46.2181
 20
110.398
 30
0.0
 11
47.4377
 21
124.345
 31
0.0
  0
LINE
  8
0
 62
     0
 10
47.4377
 20
124.345
 30
0.0
 11
33.4905
 21
125.564
 31
0.0
  0
LINE
  8
0
 62
     0
 10
33.4905
 20
125.564
 30
0.0
 11
32.2709
 21
111.617
 31
0.0
  0
LINE
  8
0
 62
     0
 10
285.364
 20
124.345
 30
0.0
 11
286.585
 21
110.398
 31
0.0
  0
LINE
  8
0
 62
     0
 10
286.585
 20
110.398
 30
0.0
 11
300.531
 21
111.617
 31
0.0
  0
LINE
  8
0
 62
     0
 10
300.531
 20
111.617
 30
0.0
 11
299.311
 21
125.564
 31
0.0
  0
LINE
  8
0
 62
     0
 10
299.311
 20
125.564
 30
0.0
 11
285.364
 21
124.345
 31
0.0
  0
LINE
  8
0
 62
     0
 10
304.342
 20
126.004
 30
0.0
 11
305.562
 21
112.057
 31
0.0
  0
LINE
  8
0
 62
     0
 10
305.562
 20
112.057
 30
0.0
 11
319.509
 21
113.278
 31
0.0
  0
LINE
  8
0
 62
     0
 10
319.509
 20
113.278
 30
0.0
 11
318.29
 21
127.225
 31
0.0
  0
LINE
  8
0
 62
     0
 10
318.29
 20
127.225
 30
0.0
 11
304.342
 21
126.004
 31
0.0
  0
ENDSEC
  0
EOF
